<?xml version="1.0" encoding="utf-8"?>
<svg viewBox="-13.553 281.707 834.474 219.267" fill="none" stroke="none" stroke-linecap="square" stroke-miterlimit="10" xmlns="http://www.w3.org/2000/svg">
  <clipPath id="p.0">
    <path d="m0 0l1152.0 0l0 864.0l-1152.0 0l0 -864.0z" clip-rule="nonzero"/>
  </clipPath>
  <g clip-path="url(#p.0)" style="" transform="matrix(0.99916, 0, 0, 1, 0, 0)">
    <path fill="#000000" fill-opacity="0.0" d="M 0 0 L 820.643 282.676 L 817.736 503.879 L -8.72 499.039 L 0 0 Z" fill-rule="evenodd"/>
    <path fill="#000000" fill-opacity="0.0" d="m55.08399 333.5643l138.74016 0l0 42.015747l-138.74016 0z" fill-rule="evenodd"/>
    <path fill="#000000" d="m65.94337 360.4843l0 -13.625l7.84375 0l0 1.53125l-6.171875 0l0 4.21875l5.515625 0l0 1.515625l-5.515625 0l0 4.828125l6.171875 0l0 1.53125l-7.84375 0zm10.271881 0l3.640625 -5.28125l-3.421875 -4.984375l1.984375 0l2.03125 3.171875q0.125 0.203125 0.25 0.453125q0.125 0.234375 0.1875 0.390625q0.0625 -0.15625 0.171875 -0.390625q0.125 -0.25 0.265625 -0.453125l2.046875 -3.171875l1.96875 0l-3.421875 5.0l3.625 5.265625l-1.984375 0l-2.203125 -3.359375q-0.125 -0.203125 -0.25 -0.46875q-0.125 -0.28125 -0.21875 -0.4375q-0.0625 0.15625 -0.203125 0.4375q-0.140625 0.265625 -0.296875 0.46875l-2.21875 3.359375l-1.953125 0zm11.975006 3.359375l0 -13.625l1.671875 0l0 1.96875l0.34375 0l-0.34375 0.390625q0 -1.171875 0.765625 -1.859375q0.78125 -0.6875 2.0625 -0.6875q1.546875 0 2.46875 1.03125q0.921875 1.015625 0.921875 2.78125l0 3.0q0 1.171875 -0.421875 2.03125q-0.421875 0.859375 -1.1875 1.328125q-0.75 0.46875 -1.78125 0.46875q-1.25 0 -2.046875 -0.6875q-0.78125 -0.6875 -0.78125 -1.84375l0.34375 0.390625l-0.375 0l0.03125 2.328125l0 2.984375l-1.671875 0zm3.9375 -4.625q1.0625 0 1.65625 -0.625q0.609375 -0.640625 0.609375 -1.84375l0 -2.796875q0 -1.1875 -0.609375 -1.828125q-0.59375 -0.640625 -1.65625 -0.640625q-1.03125 0 -1.65625 0.65625q-0.609375 0.65625 -0.609375 1.8125l0 2.796875q0 1.15625 0.609375 1.8125q0.625 0.65625 1.65625 0.65625zm7.615631 1.265625l0 -10.265625l1.640625 0l0 1.96875l0.390625 0l-0.546875 1.203125q0 -1.65625 0.71875 -2.5q0.71875 -0.859375 2.140625 -0.859375q1.625 0 2.578125 1.03125q0.96875 1.015625 0.96875 2.75l0 0.609375l-1.6875 0l0 -0.46875q0 -1.21875 -0.59375 -1.859375q-0.578125 -0.640625 -1.65625 -0.640625q-1.0625 0 -1.671875 0.65625q-0.609375 0.65625 -0.609375 1.84375l0 6.53125l-1.671875 0zm14.709381 0.1875q-1.203125 0 -2.109375 -0.484375q-0.90625 -0.484375 -1.40625 -1.375q-0.5 -0.890625 -0.5 -2.0625l0 -2.796875q0 -1.1875 0.5 -2.0625q0.5 -0.890625 1.40625 -1.375q0.90625 -0.484375 2.109375 -0.484375q1.21875 0 2.125 0.484375q0.90625 0.484375 1.390625 1.375q0.5 0.875 0.5 2.0625l0 1.8125l-6.375 0l0 0.984375q0 1.21875 0.609375 1.859375q0.609375 0.640625 1.75 0.640625q0.96875 0 1.5625 -0.34375q0.609375 -0.34375 0.734375 -1.03125l1.6875 0q-0.171875 1.28125 -1.265625 2.046875q-1.09375 0.75 -2.71875 0.75zm2.375 -6.03125l0 -0.6875q0 -1.21875 -0.609375 -1.859375q-0.609375 -0.65625 -1.765625 -0.65625q-1.140625 0 -1.75 0.65625q-0.609375 0.640625 -0.609375 1.859375l0 0.546875l4.859375 0l-0.125 0.140625zm8.506256 6.0q-1.046875 0 -1.828125 -0.328125q-0.765625 -0.328125 -1.234375 -0.921875q-0.453125 -0.609375 -0.546875 -1.421875l1.6875 0q0.109375 0.53125 0.59375 0.859375q0.5 0.3125 1.328125 0.3125l0.78125 0q0.984375 0 1.46875 -0.390625q0.48436737 -0.40625 0.48436737 -1.078125q0 -0.65625 -0.43749237 -1.03125q-0.4375 -0.390625 -1.296875 -0.515625l-1.375 -0.234375q-1.515625 -0.25 -2.25 -0.9375q-0.734375 -0.6875 -0.734375 -1.984375q0 -1.390625 0.875 -2.140625q0.875 -0.75 2.625 -0.75l0.71875 0q1.46875 0 2.3593674 0.6875q0.90625 0.6875 1.09375 1.859375l-1.6874924 0q-0.109375 -0.484375 -0.5625 -0.765625q-0.4375 -0.296875 -1.203125 -0.296875l-0.71875 0q-0.9375 0 -1.390625 0.359375q-0.4375 0.359375 -0.4375 1.0625q0 0.640625 0.375 0.9375q0.375 0.296875 1.1875 0.421875l1.375 0.234375q1.6562424 0.25 2.4062424 0.96875q0.765625 0.703125 0.765625 2.046875q0 1.421875 -0.90625 2.234375q-0.9062424 0.8125 -2.7343674 0.8125l-0.78125 0zm11.193748 0q-1.046875 0 -1.828125 -0.328125q-0.765625 -0.328125 -1.234375 -0.921875q-0.453125 -0.609375 -0.546875 -1.421875l1.6875 0q0.109375 0.53125 0.59375 0.859375q0.5 0.3125 1.328125 0.3125l0.78125 0q0.984375 0 1.46875 -0.390625q0.484375 -0.40625 0.484375 -1.078125q0 -0.65625 -0.4375 -1.03125q-0.4375 -0.390625 -1.296875 -0.515625l-1.375 -0.234375q-1.515625 -0.25 -2.25 -0.9375q-0.734375 -0.6875 -0.734375 -1.984375q0 -1.390625 0.875 -2.140625q0.875 -0.75 2.625 -0.75l0.71875 0q1.46875 0 2.359375 0.6875q0.90625 0.6875 1.09375 1.859375l-1.6875 0q-0.109375 -0.484375 -0.5625 -0.765625q-0.4375 -0.296875 -1.203125 -0.296875l-0.71875 0q-0.9375 0 -1.390625 0.359375q-0.4375 0.359375 -0.4375 1.0625q0 0.640625 0.375 0.9375q0.375 0.296875 1.1875 0.421875l1.375 0.234375q1.65625 0.25 2.40625 0.96875q0.765625 0.703125 0.765625 2.046875q0 1.421875 -0.90625 2.234375q-0.90625 0.8125 -2.734375 0.8125l-0.78125 0zm7.490631 -0.15625l0 -1.53125l3.640625 0l0 -7.203125l-3.171875 0l0 -1.53125l4.859375 0l0 8.734375l3.453125 0l0 1.53125l-8.78125 0zm4.296875 -12.109375q-0.609375 0 -0.96875 -0.3125q-0.359375 -0.328125 -0.359375 -0.859375q0 -0.5625 0.359375 -0.890625q0.359375 -0.328125 0.96875 -0.328125q0.625 0 0.96875 0.328125q0.359375 0.328125 0.359375 0.890625q0 0.53125 -0.359375 0.859375q-0.34375 0.3125 -0.96875 0.3125zm10.912506 12.265625q-1.234375 0 -2.125 -0.46875q-0.890625 -0.46875 -1.390625 -1.359375q-0.5 -0.890625 -0.5 -2.09375l0 -2.734375q0 -1.21875 0.5 -2.09375q0.5 -0.890625 1.390625 -1.34375q0.890625 -0.46875 2.125 -0.46875q1.234375 0 2.125 0.46875q0.90625 0.453125 1.390625 1.34375q0.5 0.875 0.5 2.078125l0 2.75q0 1.203125 -0.5 2.09375q-0.484375 0.890625 -1.390625 1.359375q-0.890625 0.46875 -2.125 0.46875zm0 -1.5q1.109375 0 1.71875 -0.609375q0.609375 -0.625 0.609375 -1.8125l0 -2.734375q0 -1.1875 -0.609375 -1.796875q-0.609375 -0.625 -1.71875 -0.625q-1.078125 0 -1.703125 0.625q-0.625 0.609375 -0.625 1.796875l0 2.734375q0 1.1875 0.625 1.8125q0.625 0.609375 1.703125 0.609375zm7.318756 1.34375l0 -10.265625l1.671875 0l0 1.96875l0.359375 0l-0.359375 0.390625q0 -1.21875 0.71875 -1.875q0.734375 -0.671875 2.03125 -0.671875q1.546875 0 2.453125 0.953125q0.921875 0.953125 0.921875 2.59375l0 6.90625l-1.6875 0l0 -6.71875q0 -1.09375 -0.59375 -1.6875q-0.578125 -0.59375 -1.578125 -0.59375q-1.046875 0 -1.65625 0.640625q-0.609375 0.640625 -0.609375 1.828125l0 6.53125l-1.671875 0z" fill-rule="nonzero"/>
    <path fill="#000000" fill-opacity="0.0" d="m193.82414 354.57217l69.354324 0.40945435" fill-rule="evenodd"/>
    <path stroke="#000000" stroke-width="1.0" stroke-linejoin="round" stroke-linecap="butt" d="m193.82414 354.57217l63.354446 0.37402344" fill-rule="evenodd"/>
    <path fill="#000000" stroke="#000000" stroke-width="1.0" stroke-linecap="butt" d="m257.16882 356.5979l4.5477905 -1.6249084l-4.52829 -1.6784973z" fill-rule="evenodd"/>
    <path fill="#000000" fill-opacity="0.0" d="m263.17847 333.76904l138.74017 0l0 42.015747l-138.74017 0z" fill-rule="evenodd"/>
    <path fill="#000000" d="m277.85034 360.87653q-1.234375 0 -2.140625 -0.46875q-0.90625 -0.46875 -1.40625 -1.34375q-0.484375 -0.890625 -0.484375 -2.109375l0 -6.15625q0 -1.234375 0.484375 -2.109375q0.5 -0.875 1.40625 -1.34375q0.90625 -0.46875 2.140625 -0.46875q1.234375 0 2.125 0.484375q0.890625 0.46875 1.375 1.359375q0.484375 0.875 0.484375 2.078125l-1.671875 0q0 -1.15625 -0.609375 -1.78125q-0.609375 -0.625 -1.703125 -0.625q-1.09375 0 -1.71875 0.625q-0.625 0.609375 -0.625 1.765625l0 6.171875q0 1.15625 0.625 1.78125q0.625 0.625 1.71875 0.625q1.09375 0 1.703125 -0.625q0.609375 -0.625 0.609375 -1.78125l1.671875 0q0 1.203125 -0.484375 2.09375q-0.484375 0.875 -1.375 1.359375q-0.890625 0.46875 -2.125 0.46875zm11.115631 -0.03125q-1.234375 0 -2.125 -0.46875q-0.890625 -0.46875 -1.390625 -1.359375q-0.5 -0.890625 -0.5 -2.09375l0 -2.734375q0 -1.21875 0.5 -2.09375q0.5 -0.890625 1.390625 -1.34375q0.890625 -0.46875 2.125 -0.46875q1.234375 0 2.125 0.46875q0.90625 0.453125 1.390625 1.34375q0.5 0.875 0.5 2.078125l0 2.75q0 1.203125 -0.5 2.09375q-0.484375 0.890625 -1.390625 1.359375q-0.890625 0.46875 -2.125 0.46875zm0 -1.5q1.109375 0 1.71875 -0.609375q0.609375 -0.625 0.609375 -1.8125l0 -2.734375q0 -1.1875 -0.609375 -1.796875q-0.609375 -0.625 -1.71875 -0.625q-1.078125 0 -1.703125 0.625q-0.625 0.609375 -0.625 1.796875l0 2.734375q0 1.1875 0.625 1.8125q0.625 0.609375 1.703125 0.609375zm6.834381 1.34375l0 -10.265625l1.46875 0l0 1.234375l0.34375 0l-0.265625 0.453125q0 -0.859375 0.453125 -1.359375q0.453125 -0.515625 1.25 -0.515625q0.84375 0 1.3125 0.640625q0.46875 0.640625 0.46875 1.796875l-0.5 -1.015625l0.78125 0l-0.359375 0.453125q0 -0.859375 0.46875 -1.359375q0.484375 -0.515625 1.265625 -0.515625q0.984375 0 1.515625 0.734375q0.53125 0.71875 0.53125 1.921875l0 7.796875l-1.5625 0l0 -7.8125q0 -0.640625 -0.265625 -0.984375q-0.265625 -0.359375 -0.796875 -0.359375q-0.5 0 -0.796875 0.34375q-0.28125 0.34375 -0.28125 0.984375l0 7.828125l-1.34375 0l0 -7.8125q0 -0.65625 -0.296875 -1.0q-0.28125 -0.34375 -0.796875 -0.34375q-0.53125 0 -0.796875 0.34375q-0.25 0.34375 -0.25 0.984375l0 7.828125l-1.546875 0zm11.678131 3.359375l0 -13.625l1.671875 0l0 1.96875l0.34375 0l-0.34375 0.390625q0 -1.171875 0.765625 -1.859375q0.78125 -0.6875 2.0625 -0.6875q1.546875 0 2.46875 1.03125q0.921875 1.015625 0.921875 2.78125l0 3.0q0 1.171875 -0.421875 2.03125q-0.421875 0.859375 -1.1875 1.328125q-0.75 0.46875 -1.78125 0.46875q-1.25 0 -2.046875 -0.6875q-0.78125 -0.6875 -0.78125 -1.84375l0.34375 0.390625l-0.375 0l0.03125 2.328125l0 2.984375l-1.671875 0zm3.9375 -4.625q1.0625 0 1.65625 -0.625q0.609375 -0.640625 0.609375 -1.84375l0 -2.796875q0 -1.1875 -0.609375 -1.828125q-0.59375 -0.640625 -1.65625 -0.640625q-1.03125 0 -1.65625 0.65625q-0.609375 0.65625 -0.609375 1.8125l0 2.796875q0 1.15625 0.609375 1.8125q0.625 0.65625 1.65625 0.65625zm11.131256 1.421875q-1.234375 0 -2.125 -0.46875q-0.890625 -0.46875 -1.390625 -1.359375q-0.5 -0.890625 -0.5 -2.09375l0 -2.734375q0 -1.21875 0.5 -2.09375q0.5 -0.890625 1.390625 -1.34375q0.890625 -0.46875 2.125 -0.46875q1.234375 0 2.125 0.46875q0.90625 0.453125 1.390625 1.34375q0.5 0.875 0.5 2.078125l0 2.75q0 1.203125 -0.5 2.09375q-0.484375 0.890625 -1.390625 1.359375q-0.890625 0.46875 -2.125 0.46875zm0 -1.5q1.109375 0 1.71875 -0.609375q0.609375 -0.625 0.609375 -1.8125l0 -2.734375q0 -1.1875 -0.609375 -1.796875q-0.609375 -0.625 -1.71875 -0.625q-1.078125 0 -1.703125 0.625q-0.625 0.609375 -0.625 1.796875l0 2.734375q0 1.1875 0.625 1.8125q0.625 0.609375 1.703125 0.609375zm7.318756 1.34375l0 -10.265625l1.671875 0l0 1.96875l0.359375 0l-0.359375 0.390625q0 -1.21875 0.71875 -1.875q0.734375 -0.671875 2.03125 -0.671875q1.546875 0 2.453125 0.953125q0.921875 0.953125 0.921875 2.59375l0 6.90625l-1.6875 0l0 -6.71875q0 -1.09375 -0.59375 -1.6875q-0.578125 -0.59375 -1.578125 -0.59375q-1.046875 0 -1.65625 0.640625q-0.609375 0.640625 -0.609375 1.828125l0 6.53125l-1.671875 0zm15.068756 0.1875q-1.203125 0 -2.109375 -0.484375q-0.90625 -0.484375 -1.40625 -1.375q-0.5 -0.890625 -0.5 -2.0625l0 -2.796875q0 -1.1875 0.5 -2.0625q0.5 -0.890625 1.40625 -1.375q0.90625 -0.484375 2.109375 -0.484375q1.21875 0 2.125 0.484375q0.90625 0.484375 1.390625 1.375q0.5 0.875 0.5 2.0625l0 1.8125l-6.375 0l0 0.984375q0 1.21875 0.609375 1.859375q0.609375 0.640625 1.75 0.640625q0.96875 0 1.5625 -0.34375q0.609375 -0.34375 0.734375 -1.03125l1.6875 0q-0.171875 1.28125 -1.265625 2.046875q-1.09375 0.75 -2.71875 0.75zm2.375 -6.03125l0 -0.6875q0 -1.21875 -0.609375 -1.859375q-0.609375 -0.65625 -1.765625 -0.65625q-1.140625 0 -1.75 0.65625q-0.609375 0.640625 -0.609375 1.859375l0 0.546875l4.859375 0l-0.125 0.140625zm4.943756 5.84375l0 -10.265625l1.671875 0l0 1.96875l0.359375 0l-0.359375 0.390625q0 -1.21875 0.71875 -1.875q0.734375 -0.671875 2.03125 -0.671875q1.546875 0 2.453125 0.953125q0.921875 0.953125 0.921875 2.59375l0 6.90625l-1.6875 0l0 -6.71875q0 -1.09375 -0.59375 -1.6875q-0.578125 -0.59375 -1.578125 -0.59375q-1.046875 0 -1.65625 0.640625q-0.609375 0.640625 -0.609375 1.828125l0 6.53125l-1.671875 0zm16.193756 0q-1.328125 0 -2.0625 -0.703125q-0.734375 -0.71875 -0.734375 -2.0l0 -6.03125l-2.890625 0l0 -1.53125l2.890625 0l0 -2.890625l1.671875 0l0 2.890625l4.109375 0l0 1.53125l-4.109375 0l0 6.03125q0 1.171875 1.125 1.171875l2.796875 0l0 1.53125l-2.796875 0zm9.756256 0.15625q-1.046875 0 -1.828125 -0.328125q-0.765625 -0.328125 -1.234375 -0.921875q-0.453125 -0.609375 -0.546875 -1.421875l1.6875 0q0.109375 0.53125 0.59375 0.859375q0.5 0.3125 1.328125 0.3125l0.78125 0q0.984375 0 1.46875 -0.390625q0.484375 -0.40625 0.484375 -1.078125q0 -0.65625 -0.4375 -1.03125q-0.4375 -0.390625 -1.296875 -0.515625l-1.375 -0.234375q-1.515625 -0.25 -2.25 -0.9375q-0.734375 -0.6875 -0.734375 -1.984375q0 -1.390625 0.875 -2.140625q0.875 -0.75 2.625 -0.75l0.71875 0q1.46875 0 2.359375 0.6875q0.90625 0.6875 1.09375 1.859375l-1.6875 0q-0.109375 -0.484375 -0.5625 -0.765625q-0.4375 -0.296875 -1.203125 -0.296875l-0.71875 0q-0.9375 0 -1.390625 0.359375q-0.4375 0.359375 -0.4375 1.0625q0 0.640625 0.375 0.9375q0.375 0.296875 1.1875 0.421875l1.375 0.234375q1.65625 0.25 2.40625 0.96875q0.765625 0.703125 0.765625 2.046875q0 1.421875 -0.90625 2.234375q-0.90625 0.8125 -2.734375 0.8125l-0.78125 0z" fill-rule="nonzero"/>
    <path fill="#000000" fill-opacity="0.0" d="m401.91864 354.36746l69.35434 0.40945435" fill-rule="evenodd"/>
    <path stroke="#000000" stroke-width="1.0" stroke-linejoin="round" stroke-linecap="butt" d="m401.91864 354.36746l63.35446 0.37399292" fill-rule="evenodd"/>
    <path fill="#000000" stroke="#000000" stroke-width="1.0" stroke-linecap="butt" d="m465.2633 356.3932l4.5477905 -1.6249084l-4.5282593 -1.6784973z" fill-rule="evenodd"/>
    <path fill="#000000" fill-opacity="0.0" d="m471.27298 333.76904l89.76376 0l0 42.015747l-89.76376 0z" fill-rule="evenodd"/>
    <path fill="#000000" d="m482.00735 360.68903l0 -13.625l3.859375 0q1.875 0 2.921875 0.9375q1.0625 0.9375 1.0625 2.59375q0 0.9375 -0.40625 1.625q-0.390625 0.6875 -1.109375 1.0625q-0.71875 0.375 -1.71875 0.359375l0 -0.28125q1.078125 -0.015625 1.875 0.40625q0.796875 0.421875 1.234375 1.234375q0.4375 0.796875 0.4375 1.90625q0 1.15625 -0.484375 2.015625q-0.484375 0.84375 -1.390625 1.3125q-0.890625 0.453125 -2.140625 0.453125l-4.140625 0zm1.640625 -1.515625l2.3125 0q1.171875 0 1.859375 -0.625q0.6875 -0.625 0.6875 -1.703125q0 -1.125 -0.6875 -1.8125q-0.6875 -0.703125 -1.859375 -0.703125l-2.3125 0l0 4.84375zm0 -6.296875l2.203125 0q1.078125 0 1.703125 -0.578125q0.625 -0.578125 0.625 -1.578125q0 -0.984375 -0.625 -1.5625q-0.609375 -0.578125 -1.6875 -0.578125l-2.21875 0l0 4.296875zm14.818756 7.8125q-0.90625 0 -1.578125 -0.34375q-0.671875 -0.359375 -1.046875 -1.015625q-0.359375 -0.65625 -0.359375 -1.53125l0 -9.203125l-3.453125 0l0 -1.53125l5.125 0l0 10.734375q0 0.640625 0.359375 1.0q0.359375 0.359375 0.953125 0.359375l3.265625 0l0 1.53125l-3.265625 0zm9.787506 0.15625q-1.234375 0 -2.125 -0.46875q-0.890625 -0.46875 -1.390625 -1.359375q-0.5 -0.890625 -0.5 -2.09375l0 -2.734375q0 -1.21875 0.5 -2.09375q0.5 -0.890625 1.390625 -1.34375q0.890625 -0.46875 2.125 -0.46875q1.234375 0 2.125 0.46875q0.90625 0.453125 1.390625 1.34375q0.49996948 0.875 0.49996948 2.078125l0 2.75q0 1.203125 -0.49996948 2.09375q-0.484375 0.890625 -1.390625 1.359375q-0.890625 0.46875 -2.125 0.46875zm0 -1.5q1.109375 0 1.71875 -0.609375q0.609375 -0.625 0.609375 -1.8125l0 -2.734375q0 -1.1875 -0.609375 -1.796875q-0.609375 -0.625 -1.71875 -0.625q-1.078125 0 -1.703125 0.625q-0.625 0.609375 -0.625 1.796875l0 2.734375q0 1.1875 0.625 1.8125q0.625 0.609375 1.703125 0.609375zm11.271881 1.53125q-1.234375 0 -2.15625 -0.46875q-0.921875 -0.46875 -1.4375 -1.34375q-0.5 -0.890625 -0.5 -2.109375l0 -2.796875q0 -1.234375 0.5 -2.109375q0.515625 -0.875 1.4375 -1.34375q0.921875 -0.46875 2.15625 -0.46875q1.765625 0 2.84375 0.953125q1.09375 0.953125 1.140625 2.59375l-1.671875 0q-0.0625 -0.984375 -0.671875 -1.515625q-0.59375 -0.53125 -1.640625 -0.53125q-1.09375 0 -1.75 0.625q-0.65625 0.625 -0.65625 1.78125l0 2.8125q0 1.15625 0.65625 1.796875q0.65625 0.625 1.75 0.625q1.046875 0 1.640625 -0.53125q0.609375 -0.546875 0.671875 -1.515625l1.671875 0q-0.046875 1.640625 -1.140625 2.59375q-1.078125 0.953125 -2.84375 0.953125zm7.2874756 -0.1875l0 -13.625l1.6875 0l0 7.59375l1.96875 0l2.984375 -4.234375l1.921875 0l-3.4375 4.890625l3.5 5.375l-1.953125 0l-2.984375 -4.578125l-2.0 0l0 4.578125l-1.6875 0zm14.709412 0.15625q-1.046875 0 -1.828125 -0.328125q-0.765625 -0.328125 -1.234375 -0.921875q-0.453125 -0.609375 -0.546875 -1.421875l1.6875 0q0.109375 0.53125 0.59375 0.859375q0.5 0.3125 1.328125 0.3125l0.78125 0q0.984375 0 1.46875 -0.390625q0.484375 -0.40625 0.484375 -1.078125q0 -0.65625 -0.4375 -1.03125q-0.4375 -0.390625 -1.296875 -0.515625l-1.375 -0.234375q-1.515625 -0.25 -2.25 -0.9375q-0.734375 -0.6875 -0.734375 -1.984375q0 -1.390625 0.875 -2.140625q0.875 -0.75 2.625 -0.75l0.71875 0q1.46875 0 2.359375 0.6875q0.90625 0.6875 1.09375 1.859375l-1.6875 0q-0.109375 -0.484375 -0.5625 -0.765625q-0.4375 -0.296875 -1.203125 -0.296875l-0.71875 0q-0.9375 0 -1.390625 0.359375q-0.4375 0.359375 -0.4375 1.0625q0 0.640625 0.375 0.9375q0.375 0.296875 1.1875 0.421875l1.375 0.234375q1.65625 0.25 2.40625 0.96875q0.765625 0.703125 0.765625 2.046875q0 1.421875 -0.90625 2.234375q-0.90625 0.8125 -2.734375 0.8125l-0.78125 0z" fill-rule="nonzero"/>
    <path fill="#000000" fill-opacity="0.0" d="m561.03674 354.57217l69.35431 0.40945435" fill-rule="evenodd"/>
    <path stroke="#000000" stroke-width="1.0" stroke-linejoin="round" stroke-linecap="butt" d="m561.03674 354.57217l63.35443 0.37402344" fill-rule="evenodd"/>
    <path fill="#000000" stroke="#000000" stroke-width="1.0" stroke-linecap="butt" d="m624.3814 356.5979l4.5477905 -1.6249084l-4.5282593 -1.6784973z" fill-rule="evenodd"/>
    <path fill="#000000" fill-opacity="0.0" d="m630.39105 333.5643l106.11029 0l0 42.015747l-106.11029 0z" fill-rule="evenodd"/>
    <path fill="#000000" d="m645.0629 360.6718q-1.34375 0 -2.3125 -0.4375q-0.953125 -0.453125 -1.484375 -1.296875q-0.515625 -0.84375 -0.53125 -2.0l1.671875 0q0 1.03125 0.703125 1.625q0.703125 0.59375 1.953125 0.59375q1.171875 0 1.828125 -0.578125q0.671875 -0.578125 0.671875 -1.59375q0 -0.828125 -0.4375 -1.4375q-0.4375 -0.625 -1.265625 -0.859375l-1.84375 -0.578125q-1.390625 -0.4375 -2.15625 -1.4375q-0.75 -1.015625 -0.75 -2.375q0 -1.09375 0.484375 -1.90625q0.5 -0.8125 1.390625 -1.265625q0.90625 -0.46875 2.109375 -0.46875q1.796875 0 2.875 1.0q1.078125 1.0 1.109375 2.65625l-1.6875 0q0 -1.0 -0.609375 -1.5625q-0.59375 -0.578125 -1.703125 -0.578125q-1.078125 0 -1.6875 0.53125q-0.609375 0.515625 -0.609375 1.453125q0 0.828125 0.453125 1.453125q0.453125 0.609375 1.28125 0.875l1.875 0.59375q1.359375 0.421875 2.09375 1.453125q0.75 1.03125 0.75 2.40625q0 1.125 -0.515625 1.96875q-0.515625 0.828125 -1.46875 1.296875q-0.9375 0.46875 -2.1875 0.46875zm12.240662 -0.1875q-1.328125 0 -2.0625 -0.703125q-0.734375 -0.71875 -0.734375 -2.0l0 -6.03125l-2.890625 0l0 -1.53125l2.890625 0l0 -2.890625l1.671875 0l0 2.890625l4.109375 0l0 1.53125l-4.109375 0l0 6.03125q0 1.171875 1.125 1.171875l2.796875 0l0 1.53125l-2.796875 0zm6.5531006 0l0 -10.265625l1.640625 0l0 1.96875l0.390625 0l-0.546875 1.203125q0 -1.65625 0.71875 -2.5q0.71875 -0.859375 2.140625 -0.859375q1.625 0 2.578125 1.03125q0.96875 1.015625 0.96875 2.75l0 0.609375l-1.6875 0l0 -0.46875q0 -1.21875 -0.59375 -1.859375q-0.578125 -0.640625 -1.65625 -0.640625q-1.0625 0 -1.671875 0.65625q-0.609375 0.65625 -0.609375 1.84375l0 6.53125l-1.671875 0zm10.693787 0l0 -1.53125l3.640625 0l0 -7.203125l-3.171875 0l0 -1.53125l4.859375 0l0 8.734375l3.453125 0l0 1.53125l-8.78125 0zm4.296875 -12.109375q-0.609375 0 -0.96875 -0.3125q-0.359375 -0.328125 -0.359375 -0.859375q0 -0.5625 0.359375 -0.890625q0.359375 -0.328125 0.96875 -0.328125q0.625 0 0.96875 0.328125q0.359375 0.328125 0.359375 0.890625q0 0.53125 -0.359375 0.859375q-0.34375 0.3125 -0.96875 0.3125zm7.0374756 12.109375l0 -10.265625l1.671875 0l0 1.96875l0.359375 0l-0.359375 0.390625q0 -1.21875 0.71875 -1.875q0.734375 -0.671875 2.03125 -0.671875q1.546875 0 2.453125 0.953125q0.921875 0.953125 0.921875 2.59375l0 6.90625l-1.6875 0l0 -6.71875q0 -1.09375 -0.59375 -1.6875q-0.578125 -0.59375 -1.578125 -0.59375q-1.046875 0 -1.65625 0.640625q-0.609375 0.640625 -0.609375 1.828125l0 6.53125l-1.671875 0zm12.475037 3.359375l0 -1.53125l3.265625 0q0.78125 0 1.140625 -0.359375q0.375 -0.34375 0.375 -1.09375l0 -1.3125l0.03125 -1.859375l-0.328125 0l0.3125 -0.28125q0 1.125 -0.75 1.78125q-0.734375 0.640625 -1.984375 0.640625q-1.59375 0 -2.515625 -1.03125q-0.90625 -1.03125 -0.90625 -2.796875l0 -2.15625q0 -1.75 0.90625 -2.78125q0.921875 -1.03125 2.515625 -1.03125q1.25 0 1.984375 0.65625q0.75 0.65625 0.75 1.78125l-0.3125 -0.28125l0.3125 0l0 -1.96875l1.65625 0l0 10.640625q0 1.375 -0.84375 2.171875q-0.84375 0.8125 -2.359375 0.8125l-3.25 0zm2.5625 -5.46875q1.046875 0 1.640625 -0.65625q0.59375 -0.65625 0.59375 -1.8125l0 -1.953125q0 -1.15625 -0.59375 -1.8125q-0.59375 -0.65625 -1.640625 -0.65625q-1.0625 0 -1.65625 0.640625q-0.578125 0.640625 -0.578125 1.828125l0 1.953125q0 1.203125 0.578125 1.84375q0.59375 0.625 1.65625 0.625zm10.912476 2.265625q-1.046875 0 -1.828125 -0.328125q-0.765625 -0.328125 -1.234375 -0.921875q-0.453125 -0.609375 -0.546875 -1.421875l1.6875 0q0.109375 0.53125 0.59375 0.859375q0.5 0.3125 1.328125 0.3125l0.78125 0q0.984375 0 1.46875 -0.390625q0.484375 -0.40625 0.484375 -1.078125q0 -0.65625 -0.4375 -1.03125q-0.4375 -0.390625 -1.296875 -0.515625l-1.375 -0.234375q-1.515625 -0.25 -2.25 -0.9375q-0.734375 -0.6875 -0.734375 -1.984375q0 -1.390625 0.875 -2.140625q0.875 -0.75 2.625 -0.75l0.71875 0q1.46875 0 2.359375 0.6875q0.90625 0.6875 1.09375 1.859375l-1.6875 0q-0.109375 -0.484375 -0.5625 -0.765625q-0.4375 -0.296875 -1.203125 -0.296875l-0.71875 0q-0.9375 0 -1.390625 0.359375q-0.4375 0.359375 -0.4375 1.0625q0 0.640625 0.375 0.9375q0.375 0.296875 1.1875 0.421875l1.375 0.234375q1.65625 0.25 2.40625 0.96875q0.765625 0.703125 0.765625 2.046875q0 1.421875 -0.90625 2.234375q-0.90625 0.8125 -2.734375 0.8125l-0.78125 0z" fill-rule="nonzero"/>
    <path fill="#000000" fill-opacity="0.0" d="m516.15485 375.7848l0 64.88449l-183.62204 0l0 -64.8215" fill-rule="evenodd"/>
    <path stroke="#000000" stroke-width="1.0" stroke-linejoin="round" stroke-linecap="butt" d="m516.15485 375.7848l0 64.88449l-183.62204 0l0 -58.821503" fill-rule="evenodd"/>
    <path fill="#000000" stroke="#000000" stroke-width="1.0" stroke-linecap="butt" d="m334.18454 381.84778l-1.6517334 -4.5381165l-1.6517334 4.5381165z" fill-rule="evenodd"/>
  </g>
</svg>